# xmcd
#
# Track frame offsets:
#	150
#	16885
#	36503
#	58158
#	93599
#
# Disc length: 1851 seconds
#
# Revision: 0
# Processed by: cddbd v1.5.2PL0 Copyright (c) Steve Scherf et al.
# Submitted via: audiograbber 1.83.01
#
DISCID=3e073905
DTITLE=Santana feat. Chad Kroeger - Into the night (Maxi)
DYEAR=2007
DGENRE=Pop
TTITLE0=Into the night feat. Chad Kroeger
TTITLE1=I believe it's time
TTITLE2=Curación (Sunlight on water)
TTITLE3=Victory is won
TTITLE4=Into the night (Video)
EXTD=
EXTT0=
EXTT1=
EXTT2=
EXTT3=
EXTT4=
PLAYORDER=
